<svg width="101" height="18" viewBox="0 0 101 18" fill="none" xmlns="http://www.w3.org/2000/svg">
<path id="Vector 1" d="M3 15.59L10.8682 4.42393C11.7006 3.24271 13.4519 3.24271 14.2843 4.42393L20.4445 13.1661C21.2768 14.3473 23.0282 14.3473 23.8605 13.1661L30.0207 4.42393C30.8531 3.24271 32.6044 3.24271 33.4368 4.42393L39.597 13.1661C40.4293 14.3473 42.1807 14.3473 43.013 13.1661L49.1732 4.42393C50.0056 3.24271 51.7569 3.24271 52.5893 4.42393L58.7495 13.1661C59.5818 14.3473 61.3332 14.3473 62.1655 13.1661L68.3257 4.42393C69.1581 3.24271 70.9094 3.24271 71.7418 4.42393L77.902 13.1661C78.7343 14.3473 80.4857 14.3473 81.318 13.1661L87.4782 4.42393C88.3106 3.24271 90.0619 3.24271 90.8943 4.42393L98.7625 15.59" stroke="#DF6951" stroke-width="5.22371"/>
</svg>
